<?xml version="1.0" encoding="UTF-8" standalone="no"?>
<!-- Created with Inkscape (http://www.inkscape.org/) -->

<svg
   xmlns:dc="http://purl.org/dc/elements/1.1/"
   xmlns:cc="http://creativecommons.org/ns#"
   xmlns:rdf="http://www.w3.org/1999/02/22-rdf-syntax-ns#"
   xmlns:svg="http://www.w3.org/2000/svg"
   xmlns="http://www.w3.org/2000/svg"
   xmlns:sodipodi="http://sodipodi.sourceforge.net/DTD/sodipodi-0.dtd"
   xmlns:inkscape="http://www.inkscape.org/namespaces/inkscape"
   id="svg2985"
   version="1.1"
   inkscape:version="0.91pre0 r13343"
   width="87.483475"
   height="85.733566"
   sodipodi:docname="XBOX_logo_2012.svg">
  <title
     id="title3507">XBOX</title>
  <metadata
     id="metadata2991">
    <rdf:RDF>
      <cc:Work
         rdf:about="">
        <dc:format>image/svg+xml</dc:format>
        <dc:type
           rdf:resource="http://purl.org/dc/dcmitype/StillImage" />
        <dc:title>XBOX</dc:title>
      </cc:Work>
    </rdf:RDF>
  </metadata>
  <defs
     id="defs2989" />
  <sodipodi:namedview
     pagecolor="#ffffff"
     bordercolor="#666666"
     borderopacity="1"
     objecttolerance="10"
     gridtolerance="10"
     guidetolerance="10"
     inkscape:pageopacity="0"
     inkscape:pageshadow="2"
     inkscape:window-width="1600"
     inkscape:window-height="844"
     id="namedview2987"
     showgrid="false"
     fit-margin-top="1"
     fit-margin-left="1"
     fit-margin-right="1"
     fit-margin-bottom="1"
     inkscape:zoom="4.2918149"
     inkscape:cx="71.907485"
     inkscape:cy="42.26895"
     inkscape:window-x="0"
     inkscape:window-y="27"
     inkscape:window-maximized="1"
     inkscape:current-layer="svg2985" />
  <path
     style="fill:#7eb900"
     d="m 34.040201,83.701574 c -10.1452,-2.593187 -21.45855,-9.859103 -21.45855,-13.781599 0,-5.251223 11.48227,-19.948918 24.06844,-30.808425 l 7.08045,-6.109101 3.17556,2.211814 c 4.98834,3.474443 20.94934,20.006518 24.52017,25.397482 5.79386,8.747131 5.53545,10.69743 -2.15031,16.229396 -9.26973,6.672059 -24.42709,9.623209 -35.23576,6.860433 z M 7.7764412,65.633333 c -6.61526,-9.715711 -8.74056999,-25.714463 -4.79571,-36.100716 2.4433,-6.432867 8.2025298,-15.192858 11.3400698,-17.248653 2.26636,-1.484978 2.70061,-1.46933 5.8183,0.20966 1.85304,0.997925 5.72099,3.920852 8.59544,6.495394 l 5.22629,4.680986 -5.59677,6.931307 c -11.24602,13.927588 -19.9075098,31.311064 -18.23177,36.590861 0.84552,2.663997 0.25201,2.271279 -2.3558498,-1.558839 z M 77.766341,65.331421 c -0.11214,-8.125538 -6.4709,-20.402692 -17.98276,-34.720193 l -5.56509,-6.92139 4.98943,-4.57861 c 2.74418,-2.518236 6.64363,-5.464531 8.66543,-6.547322 l 3.67602,-1.96871 4.07193,3.96871 c 2.23957,2.182791 5.50934,6.881861 7.26615,10.442378 2.75245,5.578377 3.24175,7.74567 3.53805,15.671268 0.39739,10.629987 -1.22069,17.492658 -5.70376,24.190977 l -2.90195,4.335912 -0.0534,-3.87302 z M 39.099911,12.486672 c -2.18996,-1.296582 -6.78985,-3.1175394 -10.22198,-4.0465734 -3.43213,-0.929033 -6.03822,-2.016008 -5.79133,-2.415499 0.2469,-0.399491 3.62511,-1.747631 7.50713,-2.9958666 10.16082,-3.26714171 22.187,-2.54730936 31.14723,1.8643326 3.48738,1.717038 5.39999,2.893326 4.25024,2.613973 -2.56059,-0.622147 -13.71709,2.7578224 -18.18372,5.5089344 -3.92017,2.414531 -3.71422,2.427049 -8.70757,-0.529301 z"
     id="path3505"
     inkscape:connector-curvature="0"
     sodipodi:nodetypes="ssscssssssssscssscscsscsssscccsscsssss" />
</svg>
