<?xml version="1.0" encoding="utf-8"?>
<!-- Generator: Adobe Illustrator 26.0.3, SVG Export Plug-In . SVG Version: 6.00 Build 0)  -->
<svg version="1.0" id="katman_1" xmlns="http://www.w3.org/2000/svg" xmlns:xlink="http://www.w3.org/1999/xlink" x="0px" y="0px"
	 viewBox="0 0 800 600" style="enable-background:new 0 0 800 600;" xml:space="preserve">
<style type="text/css">
	.st0{fill-rule:evenodd;clip-rule:evenodd;}
</style>
<g>
	<path class="st0" d="M83,350.6c-14.6-4.2-17-12.9-10.4-18c6.2-4.7,16.6-8.1,16.6-8.1l43.2-15.7v17.8L101.4,338
		c-5.5,2-6.3,4.9-1.9,6.3c4.5,1.5,12.5,1.1,18-0.9l14.9-5.5v16c-0.9,0.2-2,0.3-3,0.5C113.9,356.9,98,355.6,83,350.6L83,350.6z
		 M174.2,352.4l48.5-17.6c5.5-2,6.3-4.8,1.9-6.3c-4.5-1.5-12.5-1.1-18,0.9l-32.3,11.6v-18.4l1.9-0.6c7.3-2.4,14.8-4,22.5-4.8
		c13.1-1.5,29.2,0.2,41.8,5.1c14.2,4.6,15.8,11.3,12.2,15.9c-3.6,4.6-12.5,7.9-12.5,7.9l-65.9,24.1L174.2,352.4z M179.9,238.2
		c25.5,8.9,34.2,20.1,34.2,45.2c0,24.4-14.8,33.7-33.6,24.4v-45.6c0-5.3-1-10.3-5.9-11.7c-3.8-1.2-6.1,2.3-6.1,7.7v114l-30.1-9.8
		v-136C151.1,229,169.8,234.7,179.9,238.2L179.9,238.2z M244.7,363c0,0.2,0,0.4-0.1,0.5c-0.1,0.2-0.2,0.3-0.3,0.4
		c-0.3,0.2-0.7,0.3-1.1,0.3h-2.3v-2.4h2.5c0.3,0,0.5,0,0.8,0.1c0.2,0.1,0.3,0.3,0.4,0.4C244.6,362.6,244.7,362.8,244.7,363
		L244.7,363z M246.3,368.5c-0.1,0-0.1-0.1-0.2-0.2c0-0.1-0.1-0.1-0.1-0.2c0-0.2-0.1-0.4-0.1-0.7l0-1.1c0-0.4-0.1-0.8-0.3-1.1
		c-0.1-0.2-0.3-0.3-0.5-0.4c0.3-0.2,0.5-0.4,0.6-0.6c0.2-0.4,0.3-0.9,0.3-1.3c0-0.4-0.1-0.9-0.3-1.3c-0.2-0.4-0.6-0.7-0.9-0.9
		c-0.5-0.2-1-0.3-1.6-0.3h-3.9v8.6h1.4v-3.5h2.3c0.3,0,0.6,0,0.9,0.1c0.2,0.1,0.3,0.2,0.4,0.4c0.1,0.2,0.1,0.3,0.1,0.5l0.1,1.4
		c0,0.2,0,0.5,0.1,0.7c0,0.1,0.1,0.2,0.1,0.3l0.1,0.1h1.6v-0.5L246.3,368.5z M236.4,364.9c0-1.7,0.7-3.3,1.8-4.5
		c0.6-0.6,1.3-1.1,2-1.4s1.6-0.5,2.4-0.5s1.6,0.2,2.4,0.5c0.8,0.3,1.4,0.8,2,1.4c0.9,0.9,1.5,2,1.7,3.3c0.2,1.2,0.1,2.5-0.4,3.7
		c-0.5,1.2-1.3,2.2-2.3,2.9c-1,0.7-2.2,1.1-3.5,1.1c-0.8,0-1.6-0.2-2.4-0.5c-0.8-0.3-1.4-0.8-2-1.4
		C237,368.3,236.4,366.6,236.4,364.9L236.4,364.9z M242.6,372.7c1,0,2-0.2,2.9-0.6c0.9-0.4,1.7-1,2.4-1.7c1.4-1.5,2.2-3.4,2.2-5.5
		c0-2-0.8-4-2.2-5.5c-0.7-0.7-1.5-1.3-2.4-1.7c-0.9-0.4-1.9-0.6-2.9-0.6c-1.5,0-2.9,0.5-4.2,1.4c-1.2,0.9-2.2,2.1-2.8,3.5
		c-0.6,1.4-0.7,2.9-0.4,4.4c0.3,1.5,1,2.9,2,3.9c0.7,0.7,1.5,1.3,2.4,1.7C240.7,372.5,241.6,372.7,242.6,372.7L242.6,372.7z"/>
	<path d="M717.6,343.4h-1.3v-8.9h-2.9v-1.2h7.2v1.2h-2.9L717.6,343.4z M726.5,341l2.7-7.8h2v10.2h-1.3v-8.5l-3,8.5H726l-3-8.5v8.5
		h-1.3v-10.2h2L726.5,341z M700.5,255.6H577.6v33.8c0,0-0.4,13.1,15.5,13.1h75.1c2.9,0,5.9,0.6,8.6,1.8c4.2,1.9,8.9,5.8,8.9,13.6
		c0,7-3.3,11-6.6,13.2c-2.7,1.8-5.9,2.7-9.2,2.7h-92.3v9.5h103c0,0,23.4-1,23.4-25.3c0-12.4-7.1-18.5-13.6-21.5
		c-4.1-1.9-8.7-2.9-13.2-2.9h-74.5c-1.2,0-2.5-0.3-3.6-0.9c-1.6-0.9-3.3-2.6-3.3-6V265h104.8V255.6z M422.8,333.7v9.5H475
		c6.2,0.1,12.3-2.2,17-6.3c2.4-2.1,4.4-4.7,5.7-7.7c1.3-3,2-6.2,1.9-9.5v-40.3c0-2.2,0.4-4.4,1.4-6.4c0.9-2,2.3-3.8,4-5.1
		c2.4-1.9,5.4-2.9,8.4-2.9h45.5v-9.4h-54.2c0,0-23.4,0.4-23.4,25.5v37.7c0,3.1-0.8,6.1-2.4,8.8c-1.1,1.9-2.8,3.5-4.7,4.6
		c-2,1.1-4.2,1.6-6.4,1.6L422.8,333.7z M302.4,255.6v9.4h93c2.6,0,5.1,0.5,7.5,1.6c3.7,1.8,7.8,5.4,7.8,12.7
		c0,7.1-4.1,10.7-7.8,12.4c-2.4,1.1-5,1.7-7.6,1.7h-69c-4.1,0-8.1,0.9-11.8,2.7c-5.7,2.9-12.1,9.8-12.1,21.1V343h17.9v-25.6
		c0-1.7,0.3-3.3,0.9-4.9c1.5-3.8,5.2-10,13.9-10h69.6c2.3,0,4.7-0.3,6.9-0.9c6.4-1.8,17-7.2,17-22.2c0-23.4-23-23.7-23-23.7H302.4z"
		/>
</g>
</svg>
